# xmcd CD database file
#
# Track frame offsets:
#	150
#	12015
#	22646
#	37252
#	50704
#	64489
#	78147
#	90722
#	106237
#	120451
#	134035
#	147254
#	161288
#	174386
#	186533
#	201080
#	213600
#	228232
#	240330
#	253183
#	264490
#	275552
#	288393
#	300938
#	314261
#
# Disc length: 4365 seconds
#
# Revision: 2
# Processed by: cddbd v1.5.2PL0 Copyright (c) Steve Scherf et al.
# Submitted via: CDex 1.70beta2
#
DISCID=61110b19
DTITLE=Ernest Tubb - Texas Troubadour  -  Vol. 1
DYEAR=2003
DGENRE=Country
TTITLE0=Walking The Floor Over You
TTITLE1=Try Me One More Time
TTITLE2=Soldier's Last Letter
TTITLE3=Yesterday's Tears
TTITLE4=Keep My Mem'ry In Your Heart
TTITLE5=Tomorrow Never Comes
TTITLE6=Careless Darlin'
TTITLE7=It's Been So Long Darling
TTITLE8=Rainbow At Midnight
TTITLE9=Filipino Baby
TTITLE10=Drivin Nails In My Coffin
TTITLE11=Don't Look Now (But Your Broken Heart Is Showing)
TTITLE12=So Round So Firm So Fully Packed
TTITLE13=I'll Step Aside
TTITLE14=Seaman's Blues
TTITLE15=You Nearly Lose Your Mind
TTITLE16=Forever Is Ending Today
TTITLE17=That Wild And Wicked Look In Your Eye
TTITLE18=Have You Ever Been Lonely (Have You Ever Been Blue)
TTITLE19=Let's Say Goodbye Like We Said Hello
TTITLE20=Till The End Of The World
TTITLE21=I'm Biting My Fingernails And Thinking Of You
TTITLE22=Don't Rob Another Man's Castle
TTITLE23=Daddy When Is Mommy Coming Home
TTITLE24=Mean Mama Blues
EXTD=YEAR: 2003
EXTT0=
EXTT1=
EXTT2=
EXTT3=
EXTT4=
EXTT5=
EXTT6=
EXTT7=
EXTT8=
EXTT9=
EXTT10=
EXTT11=
EXTT12=
EXTT13=
EXTT14=
EXTT15=
EXTT16=
EXTT17=
EXTT18=
EXTT19=
EXTT20=
EXTT21=
EXTT22=
EXTT23=
EXTT24=
PLAYORDER=
